HIERARCHY
ROOT Hips
{
	OFFSET 0.000000 0.000000 0.000000
	CHANNELS 6 Xposition Yposition Zposition Xrotation Yrotation Zrotation
	JOINT LeftUpLeg_virtual
	{
		OFFSET 0.000000 0.000000 0.000000
		CHANNELS 3 Xrotation Yrotation Zrotation
		JOINT LeftUpLeg
		{
			OFFSET 13.026900 -6.336304 -1.092800
			CHANNELS 3 Xrotation Yrotation Zrotation
			JOINT LeftLeg
			{
				OFFSET 0.524474 -46.096886 9.782700
				CHANNELS 3 Xrotation Yrotation Zrotation
				JOINT LeftFoot
				{
					OFFSET -0.524474 -53.427422 -12.948200
					CHANNELS 3 Xrotation Yrotation Zrotation
					JOINT LeftToeBase
					{
						OFFSET 0.192200 -14.009700 16.364100
						CHANNELS 3 Xrotation Yrotation Zrotation
						JOINT LeftToe_End
						{
							OFFSET -1.784700 -0.561700 9.474800
							CHANNELS 3 Xrotation Yrotation Zrotation
							End Site
							{
								OFFSET 0 0 0
							}
						}
					}
				}
			}
		}
	}
	JOINT RightUpLeg_virtual
	{
		OFFSET 0.000000 0.000000 0.000000
		CHANNELS 3 Xrotation Yrotation Zrotation
		JOINT RightUpLeg
		{
			OFFSET -12.883000 -6.336304 -1.092800
			CHANNELS 3 Xrotation Yrotation Zrotation
			JOINT RightLeg
			{
				OFFSET -0.524587 -46.096825 9.782800
				CHANNELS 3 Xrotation Yrotation Zrotation
				JOINT RightFoot
				{
					OFFSET 0.524587 -53.427383 -12.948300
					CHANNELS 3 Xrotation Yrotation Zrotation
					JOINT RightToeBase
					{
						OFFSET -0.192200 -14.009700 16.364100
						CHANNELS 3 Xrotation Yrotation Zrotation
						JOINT RightToe_End
						{
							OFFSET 1.784700 -0.561700 9.474800
							CHANNELS 3 Xrotation Yrotation Zrotation
							End Site
							{
								OFFSET 0 0 0
							}
						}
					}
				}
			}
		}
	}
	JOINT Spine_virtual
	{
		OFFSET 0.000000 0.000000 0.000000
		CHANNELS 3 Xrotation Yrotation Zrotation
		JOINT Spine
		{
			OFFSET 0.072000 7.257294 -0.789700
			CHANNELS 3 Xrotation Yrotation Zrotation
			JOINT Spine1
			{
				OFFSET 0.000000 12.508769 -0.658067
				CHANNELS 3 Xrotation Yrotation Zrotation
				JOINT Spine1_split
				{
					OFFSET 0.000000 12.508769 -0.658067
					CHANNELS 3 Xrotation Yrotation Zrotation
					JOINT Spine2
					{
						OFFSET 0.000000 12.508769 -0.658067
						CHANNELS 3 Xrotation Yrotation Zrotation
						JOINT Neck_virtual
						{
							OFFSET 0.000000 0.000000 0.000000
							CHANNELS 3 Xrotation Yrotation Zrotation
							JOINT Neck
							{
								OFFSET 0.000000 14.033295 7.520400
								CHANNELS 3 Xrotation Yrotation Zrotation
								JOINT Head
								{
									OFFSET 0.000000 8.198502 5.703100
									CHANNELS 3 Xrotation Yrotation Zrotation
									JOINT HeadTop_End
									{
										OFFSET 0.000000 17.760803 13.332701
										CHANNELS 3 Xrotation Yrotation Zrotation
										End Site
										{
											OFFSET 0 0 0
										}
									}
								}
							}
						}
						JOINT LeftShoulder_virtual
						{
							OFFSET 0.000000 0.000000 0.000000
							CHANNELS 3 Xrotation Yrotation Zrotation
							JOINT LeftShoulder
							{
								OFFSET 6.292450 5.785301 -0.669000
								CHANNELS 3 Xrotation Yrotation Zrotation
								JOINT LeftShoulder_split
								{
									OFFSET 6.292450 5.785301 -0.669000
									CHANNELS 3 Xrotation Yrotation Zrotation
									JOINT LeftArm
									{
										OFFSET 13.907140 -6.093903 1.965100
										CHANNELS 3 Xrotation Yrotation Zrotation
										JOINT LeftForeArm
										{
											OFFSET 34.140198 0.000000 0.000000
											CHANNELS 3 Xrotation Yrotation Zrotation
											JOINT LeftHand
											{
												OFFSET 40.960209 0.000000 0.000000
												CHANNELS 3 Xrotation Yrotation Zrotation
												End Site
												{
													OFFSET 0 0 0
												}
											}
										}
									}
								}
							}
						}
						JOINT RightShoulder_virtual
						{
							OFFSET 0.000000 0.000000 0.000000
							CHANNELS 3 Xrotation Yrotation Zrotation
							JOINT RightShoulder
							{
								OFFSET -6.292450 5.785301 -0.669000
								CHANNELS 3 Xrotation Yrotation Zrotation
								JOINT RightShoulder_split
								{
									OFFSET -6.292450 5.785301 -0.669000
									CHANNELS 3 Xrotation Yrotation Zrotation
									JOINT RightArm
									{
										OFFSET -13.907140 -6.093903 1.965100
										CHANNELS 3 Xrotation Yrotation Zrotation
										JOINT RightForeArm
										{
											OFFSET -34.140198 0.000000 0.000000
											CHANNELS 3 Xrotation Yrotation Zrotation
											JOINT RightHand
											{
												OFFSET -40.960209 0.000000 0.000000
												CHANNELS 3 Xrotation Yrotation Zrotation
												End Site
												{
													OFFSET 0 0 0
												}
											}
										}
									}
								}
							}
						}
					}
				}
			}
		}
	}
}
MOTION
Frames: 5
Frame Time: 0.03333333
0.904236 113.078812 -2.109741 0.000000 0.000000 0.000000 -5.545618 -5.765245 2.623139 -18.003028 10.190559 8.556169 18.178542 6.914527 0.972303 4.385179 0.300262 -5.215025 -0.094553 -0.098426 -1.027300 0.000000 0.000000 0.000000 -5.295894 -4.763613 2.895785 2.979446 -15.142005 -5.992985 21.226104 -8.476336 -3.822979 -15.956090 -7.231122 9.371257 -4.805198 0.295332 0.254566 0.000000 0.000000 0.000000 -6.048261 -6.116782 2.608694 5.158204 1.590736 -1.263011 1.048550 0.402986 -0.419991 0.752379 0.322119 -0.021863 0.000000 0.000000 0.000000 1.096713 0.787276 -0.643199 1.411497 5.555613 0.337187 4.234353 -10.480559 3.213632 0.000000 0.000000 0.000000 0.939847 0.776159 -0.843399 -0.158053 -15.660695 -17.961895 -1.551782 -1.609236 -2.845306 13.985496 -1.885420 -33.122801 110.939908 -89.344489 110.551161 0.000000 0.000000 0.000000 0.832613 0.656769 -0.720781 0.433212 15.671461 12.482920 1.899843 2.620599 0.503797 7.539195 21.112485 38.207576 -173.755764 79.310873 173.272446 0.000000 0.000000 0.000000 
1.304573 112.979935 -2.216476 0.000000 0.000000 0.000000 -5.469237 -5.974705 2.694596 -17.864010 9.784293 8.326655 18.465864 6.784162 1.054058 4.119321 0.542890 -5.344134 -0.138646 -0.116028 -1.020653 0.000000 0.000000 0.000000 -5.375480 -4.829399 2.950948 2.788933 -15.449780 -6.226783 21.374225 -8.382938 -3.863301 -15.903930 -7.183768 9.325100 -4.500993 0.237187 0.266011 0.000000 0.000000 0.000000 -6.041882 -6.226240 2.597046 5.222244 1.554373 -1.236619 1.089406 0.359324 -0.382298 0.729175 0.369492 -0.020704 0.000000 0.000000 0.000000 1.046590 0.737841 -0.611309 1.387383 5.549520 0.238131 4.265355 -10.364172 3.181364 0.000000 0.000000 0.000000 0.932062 0.727633 -0.822861 -0.167415 -15.694851 -17.973906 -1.361866 -1.620150 -2.793287 14.071059 -1.679984 -33.259401 115.204118 -89.239980 114.797435 0.000000 0.000000 0.000000 0.839744 0.633150 -0.691969 0.430587 15.832800 12.587672 1.906002 2.695720 0.667011 7.625740 21.275312 38.397356 -173.700235 79.536494 173.206439 0.000000 0.000000 0.000000 
1.778506 112.676895 -2.177063 0.000000 0.000000 0.000000 -5.442390 -6.299310 2.849855 -17.973936 9.549193 8.008791 19.343743 6.687940 1.149759 3.451944 1.182168 -5.493187 -0.177519 -0.108861 -1.060834 0.000000 0.000000 0.000000 -5.384212 -4.906507 3.083309 2.308719 -15.631455 -6.665987 22.012354 -8.211017 -3.888978 -16.276025 -7.239534 9.144378 -4.283794 0.204949 0.280563 0.000000 0.000000 0.000000 -6.039319 -6.394210 2.662026 5.320315 1.422993 -1.250936 1.135567 0.241857 -0.305305 0.696971 0.392737 -0.026067 0.000000 0.000000 0.000000 1.007173 0.616144 -0.533402 1.417262 5.530151 0.064202 4.262254 -10.275337 2.911017 0.000000 0.000000 0.000000 0.942288 0.604232 -0.752462 -0.182059 -15.746366 -18.027267 -1.194589 -1.575358 -2.675814 14.416812 -1.274943 -33.397364 132.730834 -88.945934 132.301570 0.000000 0.000000 0.000000 0.848315 0.532718 -0.610518 0.442067 15.953831 12.663889 1.890814 2.731882 0.697763 7.643826 21.791727 38.697571 -173.657450 79.939837 173.191550 0.000000 0.000000 0.000000 
2.267482 112.235199 -2.083389 0.000000 0.000000 0.000000 -5.448003 -6.720264 3.071050 -18.320651 9.534623 7.596029 20.556884 6.604970 1.235509 2.458465 2.095781 -5.694795 -0.187174 -0.081628 -1.125589 0.000000 0.000000 0.000000 -5.336166 -5.119795 3.281393 1.508263 -15.655046 -7.289736 23.002559 -7.920556 -3.893985 -16.889376 -7.342964 8.927672 -4.235811 0.197789 0.286759 0.000000 0.000000 0.000000 -5.985272 -6.662677 2.786895 5.406977 1.220929 -1.312064 1.169798 0.070019 -0.203769 0.649737 0.445100 -0.032502 0.000000 0.000000 0.000000 0.977395 0.441548 -0.430759 1.490583 5.496169 -0.162903 4.170698 -10.208260 2.417587 0.000000 0.000000 0.000000 0.965817 0.421818 -0.646484 -0.195564 -15.813404 -18.104402 -1.095265 -1.520385 -2.568053 14.966244 -0.714648 -33.544671 147.551019 -88.382743 147.098355 0.000000 0.000000 0.000000 0.849431 0.370591 -0.492366 0.479908 16.020132 12.698225 1.839917 2.676303 0.613622 7.526278 22.517228 39.130806 -173.596115 80.434452 173.188244 0.000000 0.000000 0.000000 
2.759709 111.726028 -2.029110 0.000000 0.000000 0.000000 -5.471214 -7.251154 3.308484 -18.821221 9.716158 7.129368 21.865302 6.474534 1.305714 1.336452 3.150619 -6.011755 -0.194773 -0.044405 -1.178916 0.000000 0.000000 0.000000 -5.247330 -5.565019 3.520209 0.379170 -15.498234 -8.056904 24.230467 -7.458987 -3.872299 -17.512316 -7.436259 8.843888 -4.344335 0.211315 0.287248 0.000000 0.000000 0.000000 -5.866270 -7.073983 2.949558 5.448861 0.974285 -1.411199 1.185091 -0.137734 -0.095387 0.653804 0.491962 -0.032234 0.000000 0.000000 0.000000 0.957137 0.231398 -0.323966 1.581719 5.433001 -0.412405 3.954924 -10.191123 1.749448 0.000000 0.000000 0.000000 0.996575 0.199187 -0.527230 -0.206075 -15.890357 -18.193220 -1.070526 -1.496144 -2.504137 15.663833 -0.014899 -33.712793 156.107621 -87.612544 155.628729 0.000000 0.000000 0.000000 0.846656 0.167756 -0.359930 0.548091 16.032720 12.692605 1.776967 2.580480 0.499352 7.260411 23.309344 39.725941 -173.490042 80.973826 173.165431 0.000000 0.000000 0.000000 
